<?xml version="1.0" encoding="UTF-8" standalone="no"?>
<!-- Created with Inkscape (http://www.inkscape.org/) -->

<svg
   xmlns:dc="http://purl.org/dc/elements/1.1/"
   xmlns:cc="http://creativecommons.org/ns#"
   xmlns:rdf="http://www.w3.org/1999/02/22-rdf-syntax-ns#"
   xmlns:svg="http://www.w3.org/2000/svg"
   xmlns="http://www.w3.org/2000/svg"
   xmlns:sodipodi="http://sodipodi.sourceforge.net/DTD/sodipodi-0.dtd"
   xmlns:inkscape="http://www.inkscape.org/namespaces/inkscape"
   width="290.97519mm"
   height="114.75461mm"
   viewBox="0 0 1031.0144 406.61082"
   id="svg2"
   version="1.1"
   inkscape:version="0.91 r13725"
   sodipodi:docname="logoPlaceholder.svg">
  <defs
     id="defs4">
    <inkscape:path-effect
       effect="spiro"
       id="path-effect4202"
       is_visible="true" />
    <inkscape:path-effect
       cusp_linecap_type="round"
       end_linecap_type="zerowidth"
       miter_limit="4"
       linejoin_type="round"
       start_linecap_type="zerowidth"
       interpolator_beta="0.2"
       interpolator_type="Linear"
       sort_points="true"
       offset_points="0,-1.6668433"
       is_visible="true"
       id="path-effect4198"
       effect="powerstroke" />
    <inkscape:path-effect
       is_visible="true"
       id="path-effect4196"
       effect="spiro" />
    <inkscape:path-effect
       effect="spiro"
       id="path-effect3390"
       is_visible="true" />
    <inkscape:path-effect
       effect="powerstroke"
       id="path-effect3386"
       is_visible="true"
       offset_points="0,0.5"
       sort_points="true"
       interpolator_type="Linear"
       interpolator_beta="0.2"
       start_linecap_type="zerowidth"
       linejoin_type="round"
       miter_limit="4"
       end_linecap_type="zerowidth"
       cusp_linecap_type="round" />
    <inkscape:path-effect
       effect="spiro"
       id="path-effect3384"
       is_visible="true" />
    <inkscape:path-effect
       effect="powerstroke"
       id="path-effect3380"
       is_visible="true"
       offset_points="0,-3.4109607"
       sort_points="true"
       interpolator_type="Linear"
       interpolator_beta="0.2"
       start_linecap_type="zerowidth"
       linejoin_type="round"
       miter_limit="4"
       end_linecap_type="zerowidth"
       cusp_linecap_type="round" />
    <inkscape:path-effect
       effect="spiro"
       id="path-effect3378"
       is_visible="true" />
    <inkscape:path-effect
       effect="powerstroke"
       id="path-effect3370"
       is_visible="true"
       offset_points="0.033074709,6.2310523"
       sort_points="true"
       interpolator_type="Linear"
       interpolator_beta="0.2"
       start_linecap_type="zerowidth"
       linejoin_type="round"
       miter_limit="4"
       end_linecap_type="zerowidth"
       cusp_linecap_type="round" />
    <inkscape:path-effect
       effect="spiro"
       id="path-effect3368"
       is_visible="true" />
    <inkscape:path-effect
       effect="powerstroke"
       id="path-effect3364"
       is_visible="true"
       offset_points="0,0.5"
       sort_points="true"
       interpolator_type="Linear"
       interpolator_beta="0.2"
       start_linecap_type="zerowidth"
       linejoin_type="round"
       miter_limit="4"
       end_linecap_type="zerowidth"
       cusp_linecap_type="round" />
    <inkscape:path-effect
       effect="spiro"
       id="path-effect3362"
       is_visible="true" />
    <inkscape:path-effect
       effect="powerstroke"
       id="path-effect3346"
       is_visible="true"
       offset_points="0,-9.7128462"
       sort_points="true"
       interpolator_type="Linear"
       interpolator_beta="0.2"
       start_linecap_type="zerowidth"
       linejoin_type="round"
       miter_limit="4"
       end_linecap_type="zerowidth"
       cusp_linecap_type="round" />
    <inkscape:path-effect
       effect="spiro"
       id="path-effect3344"
       is_visible="true" />
  </defs>
  <sodipodi:namedview
     id="base"
     pagecolor="#ffffff"
     bordercolor="#666666"
     borderopacity="1.0"
     inkscape:pageopacity="0.0"
     inkscape:pageshadow="2"
     inkscape:zoom="1.4142136"
     inkscape:cx="650.26516"
     inkscape:cy="31.561615"
     inkscape:document-units="px"
     inkscape:current-layer="layer1"
     showgrid="false"
     inkscape:window-width="2560"
     inkscape:window-height="1377"
     inkscape:window-x="-8"
     inkscape:window-y="-8"
     inkscape:window-maximized="1"
     fit-margin-bottom="-1.6"
     fit-margin-top="0"
     fit-margin-left="0"
     fit-margin-right="0" />
  <metadata
     id="metadata7">
    <rdf:RDF>
      <cc:Work
         rdf:about="">
        <dc:format>image/svg+xml</dc:format>
        <dc:type
           rdf:resource="http://purl.org/dc/dcmitype/StillImage" />
        <dc:title></dc:title>
      </cc:Work>
    </rdf:RDF>
  </metadata>
  <g
     inkscape:label="Layer 1"
     inkscape:groupmode="layer"
     id="layer1"
     transform="translate(1.1937181,-325.0598)">
    <path
       style="fill:#000000;fill-rule:evenodd;stroke:none;stroke-width:1px;stroke-linecap:butt;stroke-linejoin:miter;stroke-opacity:1"
       d="M 0.09283715,476.60018 C 175.48462,488.60297 353.41906,463.52483 518.79352,403.43194 c 44.12618,-15.94647 89.62863,-35.08239 135.16659,-49.6436 45.86,-14.66418 92.90883,-25.11736 141.67379,-23.9526 48.78914,1.34468 98.44628,15.17455 137.42336,45.35711 19.37442,15.23029 35.77667,34.35069 47.09613,56.23422 11.32043,21.88506 17.45204,46.49707 16.85647,71.06852 -0.67339,32.70159 -13.4663,64.72171 -34.77634,89.1203 -21.31574,24.40497 -50.91262,41.08679 -82.42432,47.30996 -34.56598,6.86182 -71.33533,1.10787 -101.96567,-15.78099 -30.63759,-16.89286 -54.88534,-44.78017 -67.34571,-77.19108 13.13224,32.15343 37.84507,59.27595 68.36839,75.29033 30.53055,16.01817 66.64437,20.81246 100.05927,13.45634 30.47275,-6.74092 58.57425,-23.54013 78.38412,-47.28975 19.81507,-23.756 31.13312,-54.37642 31.06702,-84.99799 -0.13893,-23.00906 -6.57963,-45.83327 -17.73544,-65.88796 -11.15646,-20.05625 -26.97899,-37.40774 -45.43799,-51.0349 -36.68873,-27.53225 -83.51796,-39.9724 -129.87436,-40.54832 -46.38139,-0.75681 -91.50636,9.52359 -136.37588,24.24456 -45.19259,14.82696 -88.9772,33.72166 -134.22903,50.46281 -167.38741,61.59507 -347.77345,87.79876 -525.9176992,76.33432 z"
       id="path3342"
       inkscape:path-effect="#path-effect3344;#path-effect3346"
       inkscape:original-d="M -0.55047101,486.2917 C 506.0609,411.54042 521.75872,411.54042 521.75872,411.54042 c 0,0 518.02798,-2.02031 470.93452,90.91373 -47.09345,92.93403 79.32916,264.66868 -113.3259,134.359 C 686.71232,506.50347 319.47947,566.15683 710.49782,545.95378"
       inkscape:connector-curvature="0"
       sodipodi:nodetypes="ccssc" />
    <path
       style="fill:#000000;fill-rule:evenodd;stroke:none;stroke-width:1px;stroke-linecap:butt;stroke-linejoin:miter;stroke-opacity:1"
       d="m 14.180584,486.19017 c 1.133601,2.00519 2.332875,3.98944 3.596379,5.95038 30.751843,-3.75901 59.05839,-21.83554 75.170312,-47.5854 6.5504,-11.24323 10.850055,-23.62619 12.690155,-36.23484 a 0.00162196,0.26607539 8.317374 0 0 0.0354,-0.25276 l -0.0734,-25.92309 -4.11404,25.59467 0.0354,-0.25275 c -3.106466,11.80797 -8.463345,22.87876 -15.594097,32.45555 -15.858909,22.89932 -42.253699,37.76236 -69.391665,39.79857 -0.716671,2.1592 -1.501123,4.31018 -2.354364,6.44967 z"
       id="path3366"
       inkscape:path-effect="#path-effect3368;#path-effect3370"
       inkscape:original-d="m 14.180584,486.19017 c 24.17881,-52.9724 69.67152,2.63945 75.25636,-43.94163 2.0203,-22.72843 14.142126,-34.3452 14.142126,-34.3452 l 2.0203,-25.75888"
       inkscape:connector-curvature="0"
       sodipodi:nodetypes="cccc" />
    <text
       xml:space="preserve"
       style="font-style:normal;font-variant:normal;font-weight:normal;font-stretch:normal;font-size:315.35021973px;line-height:125%;font-family:Cambria;-inkscape-font-specification:Cambria;letter-spacing:0px;word-spacing:0px;fill:#000000;fill-opacity:1;stroke:none;stroke-width:1px;stroke-linecap:butt;stroke-linejoin:miter;stroke-opacity:1"
       x="268.54575"
       y="694.70093"
       id="text3372"
       sodipodi:linespacing="125%"
       transform="scale(0.9716026,1.0292274)"><tspan
         sodipodi:role="line"
         id="tspan3374"
         x="268.54575"
         y="694.70093">Skint</tspan></text>
    <path
       style="fill:#000000;fill-rule:evenodd;stroke:none;stroke-width:1px;stroke-linecap:butt;stroke-linejoin:miter;stroke-opacity:1"
       d="m 581.69204,389.69545 c 16.23354,-1.59103 32.60039,-1.00742 48.53338,1.69052 28.55371,4.38074 55.88097,15.62884 79.0603,32.4048 -23.83071,-15.84406 -51.34778,-25.84212 -79.51112,-29.02376 -15.7847,-1.53112 -31.69677,-0.94764 -47.18092,1.69052 z"
       id="path3376"
       inkscape:path-effect="#path-effect3378;#path-effect3380"
       inkscape:original-d="m 582.14286,393.07649 c 91.00073,-92.97044 57.78291,-11.11772 47.85715,0 -4.47715,5.0148 87.89271,-22.03612 79.28571,30.71428"
       inkscape:connector-curvature="0"
       sodipodi:nodetypes="csc" />
    <path
       sodipodi:nodetypes="csc"
       inkscape:connector-curvature="0"
       inkscape:original-d="m 931.16234,376.09819 c 41.56921,47.48284 26.39529,5.67815 21.86119,0 -2.04516,-2.56121 40.14946,11.25452 36.21777,-15.68672"
       inkscape:path-effect="#path-effect4196;#path-effect4198"
       id="path4194"
       d="m 931.40307,374.44882 c 7.036,1.30772 14.30361,1.59427 21.50009,0.82469 13.06357,-1.62592 25.75216,-6.78677 36.33814,-14.86204 -10.23778,8.50825 -22.8197,14.29273 -36.0974,16.5114 -7.27546,1.34262 -14.78634,1.62927 -22.22229,0.82469 z"
       style="fill:#000000;fill-rule:evenodd;stroke:none;stroke-width:1px;stroke-linecap:butt;stroke-linejoin:miter;stroke-opacity:1" />
    <path
       style="fill:#aa0000;fill-opacity:1;fill-rule:evenodd;stroke:none;stroke-width:1px;stroke-linecap:butt;stroke-linejoin:miter;stroke-opacity:1"
       d="m 1029.8207,325.0598 c -4.9302,8.69837 -55.50383,17.06968 -46.1807,38.44885 l 17.3353,-17.69292 c -10.28761,12.80061 -8.42749,7.63371 -15.58781,18.93447 19.59521,-4.42655 37.47921,-16.95104 44.43321,-39.6904 z"
       id="path4200"
       inkscape:connector-curvature="0"
       sodipodi:nodetypes="ccccc" />
    <path
       sodipodi:nodetypes="ccccc"
       inkscape:connector-curvature="0"
       id="path4205"
       d="m 778.57209,493.97375 c -8.26687,-11.78818 -13.65681,-94.41242 -71.89742,-72.12096 16.79947,9.20127 29.60205,24.79851 43.88694,37.5621 -28.12928,-23.40196 -18.3311,-20.11942 -42.6702,-35.9342 10.60017,46.85184 16.22719,53.86601 70.68068,70.49306 z"
       style="fill:#ff7f2a;fill-opacity:1;fill-rule:evenodd;stroke:none;stroke-width:1px;stroke-linecap:butt;stroke-linejoin:miter;stroke-opacity:1" />
  </g>
</svg>
